<svg viewBox="-5 -5 90 90" width="90" height="90" xmlns="http://www.w3.org/2000/svg"><path d="M 0 0 H 10 V 10 H 0 Z" style="fill:grey;stroke:black;"/><path d="M 20 10 V 20 H 10 H 0 V 10 H 10 V 0 H 20 Z" style="fill:grey;stroke:black;"/><path d="M 50 0 V 10 H 40 H 30 H 20 V 0 H 30 H 40 Z" style="fill:grey;stroke:black;"/><path d="M 60 10 V 20 H 50 H 40 V 10 H 50 V 0 H 60 Z" style="fill:grey;stroke:black;"/><path d="M 80 10 V 20 H 70 V 10 H 60 V 0 H 70 H 80 Z" style="fill:grey;stroke:black;"/><path d="M 30 20 V 30 H 20 H 10 V 20 H 20 V 10 H 30 Z" style="fill:grey;stroke:black;"/><path d="M 50 20 V 30 H 40 H 30 V 20 V 10 H 40 V 20 Z" style="fill:grey;stroke:black;"/><path d="M 70 20 V 30 H 60 H 50 V 20 H 60 V 10 H 70 Z" style="fill:grey;stroke:black;"/><path d="M 20 30 V 40 H 10 H 0 V 30 V 20 H 10 V 30 Z" style="fill:grey;stroke:black;"/><path d="M 80 30 V 40 H 70 H 60 V 30 H 70 V 20 H 80 Z" style="fill:grey;stroke:black;"/><path d="M 30 40 V 50 H 20 H 10 V 40 H 20 V 30 H 30 Z" style="fill:grey;stroke:black;"/><path d="M 60 30 V 40 H 50 H 40 H 30 V 30 H 40 H 50 Z" style="fill:grey;stroke:black;"/><path d="M 20 50 V 60 H 10 H 0 V 50 V 40 H 10 V 50 Z" style="fill:grey;stroke:black;"/><path d="M 40 50 V 60 H 30 H 20 V 50 H 30 V 40 H 40 Z" style="fill:grey;stroke:black;"/><path d="M 70 40 V 50 H 60 H 50 H 40 V 40 H 50 H 60 Z" style="fill:grey;stroke:black;"/><path d="M 80 50 V 60 H 70 H 60 V 50 H 70 V 40 H 80 Z" style="fill:grey;stroke:black;"/><path d="M 50 60 V 70 H 40 H 30 V 60 H 40 V 50 H 50 Z" style="fill:grey;stroke:black;"/><path d="M 70 60 V 70 H 60 H 50 V 60 V 50 H 60 V 60 Z" style="fill:grey;stroke:black;"/><path d="M 30 60 V 70 H 20 H 10 H 0 V 60 H 10 H 20 Z" style="fill:grey;stroke:black;"/><path d="M 80 70 V 80 H 70 H 60 V 70 H 70 V 60 H 80 Z" style="fill:grey;stroke:black;"/><path d="M 30 70 V 80 H 20 H 10 H 0 V 70 H 10 H 20 Z" style="fill:grey;stroke:black;"/><path d="M 60 70 V 80 H 50 H 40 H 30 V 70 H 40 H 50 Z" style="fill:grey;stroke:black;"/></svg>