<svg viewBox="-5 -5 90 90" width="90" height="90" xmlns="http://www.w3.org/2000/svg"><path d="M 10 20 V 30 H 0 V 20 V 10 V 0 H 10 V 10 Z" style="fill:grey;stroke:black;"/><path d="M 20 20 V 30 H 10 V 20 V 10 V 0 H 20 V 10 Z" style="fill:grey;stroke:black;"/><path d="M 30 20 V 30 H 20 V 20 V 10 V 0 H 30 V 10 Z" style="fill:grey;stroke:black;"/><path d="M 40 20 V 30 H 30 V 20 V 10 V 0 H 40 V 10 Z" style="fill:grey;stroke:black;"/><path d="M 50 20 V 30 H 40 V 20 V 10 V 0 H 50 V 10 Z" style="fill:grey;stroke:black;"/><path d="M 60 20 V 30 H 50 V 20 V 10 V 0 H 60 V 10 Z" style="fill:grey;stroke:black;"/><path d="M 70 20 V 30 H 60 V 20 V 10 V 0 H 70 V 10 Z" style="fill:grey;stroke:black;"/><path d="M 80 20 V 30 H 70 V 20 V 10 V 0 H 80 V 10 Z" style="fill:grey;stroke:black;"/><path d="M 10 50 V 60 H 0 V 50 V 40 V 30 H 10 V 40 Z" style="fill:grey;stroke:black;"/><path d="M 20 50 V 60 H 10 V 50 V 40 V 30 H 20 V 40 Z" style="fill:grey;stroke:black;"/><path d="M 30 50 V 60 H 20 V 50 V 40 V 30 H 30 V 40 Z" style="fill:grey;stroke:black;"/><path d="M 40 50 V 60 H 30 V 50 V 40 V 30 H 40 V 40 Z" style="fill:grey;stroke:black;"/><path d="M 50 50 V 60 H 40 V 50 V 40 V 30 H 50 V 40 Z" style="fill:grey;stroke:black;"/><path d="M 60 50 V 60 H 50 V 50 V 40 V 30 H 60 V 40 Z" style="fill:grey;stroke:black;"/><path d="M 70 50 V 60 H 60 V 50 V 40 V 30 H 70 V 40 Z" style="fill:grey;stroke:black;"/><path d="M 80 50 V 60 H 70 V 50 V 40 V 30 H 80 V 40 Z" style="fill:grey;stroke:black;"/><path d="M 20 70 V 80 H 10 H 0 V 70 V 60 H 10 V 70 Z" style="fill:grey;stroke:black;"/><path d="M 30 70 V 80 H 20 V 70 H 10 V 60 H 20 H 30 Z" style="fill:grey;stroke:black;"/><path d="M 50 70 V 80 H 40 H 30 V 70 V 60 H 40 V 70 Z" style="fill:grey;stroke:black;"/><path d="M 60 70 V 80 H 50 V 70 H 40 V 60 H 50 H 60 Z" style="fill:grey;stroke:black;"/><path d="M 80 60 V 70 H 70 V 80 H 60 V 70 V 60 H 70 Z" style="fill:grey;stroke:black;"/><path d="M 70 70 H 80 V 80 H 70 Z" style="fill:grey;stroke:black;"/></svg>